<?xml version="1.0" encoding="UTF-8"?>
<svg width="24px" height="24px" viewBox="0 0 24 24" version="1.1" xmlns="http://www.w3.org/2000/svg" xmlns:xlink="http://www.w3.org/1999/xlink">
    <g stroke="none" stroke-width="1" fill="none" fill-rule="evenodd">
        <path d="M12,21 C11.355,21 10.76,20.772 10.268,20.366 C7.972,18.455 4.271,15.458 2.439,13.158 C1.57,12.097 1.14,10.776 1.14,9.415 C1.14,6.513 3.42,4.198 6.27,4.198 C7.894,4.198 9.401,5.004 10.274,6.324 L12,8.894 L13.726,6.324 C14.599,5.004 16.106,4.198 17.73,4.198 C20.58,4.198 22.86,6.513 22.86,9.415 C22.86,10.776 22.43,12.097 21.561,13.158 C19.729,15.458 16.028,18.455 13.732,20.366 C13.24,20.772 12.645,21 12,21" fill="#FFB6C1" fill-rule="nonzero"></path>
    </g>
</svg>
